<svg width="447" height="120" viewBox="0 0 447 120" fill="none" xmlns="http://www.w3.org/2000/svg">
<g clip-path="url(#clip0_4_52)">
<path d="M49.25 34.37V64.84C49.25 68.49 49.53 68.76 53.17 68.76H89.25C93 68.76 93.25 69.39 93.25 73.21C93.11 85.78 92.96 98.35 93.25 110.91C93.42 119.6 93.33 119.91 84.89 119.61C81.96 119.5 81.24 117.96 81.25 115.35V86.69C81.25 79.81 81.77 80.37 75 80.36H41.58C37.85 80.36 37.48 79.73 37.71 75.85C37.94 71.97 37.91 67.85 37.91 63.79V15.79C37.91 11.73 37.75 11.57 33.71 11.57C23.71 11.57 13.8 11.49 3.84 11.57C1 11.68 0 10.73 0 7.83C0.17 -0.849998 -0.72 2.72319e-06 7.63 2.72319e-06H45.19C48.87 2.72319e-06 49.19 0.380003 49.24 4.18C49.26 14.2467 49.2633 24.31 49.25 34.37Z" fill="#A82AB2"/>
<path d="M19 65.16V36.16C19 30.8 19 30.81 13.6 30.8H3.25C1 30.87 1.53296e-06 29.83 1.53296e-06 27.55C0.0900015 16.66 -1.11 18.29 8.76 18.19C14.48 18.13 20.2 18.19 25.92 18.19C30.19 18.19 30.82 18.82 30.83 23.31V69.49C30.83 74.31 30.94 79.15 30.83 83.97C30.75 86.72 31.73 87.69 34.43 87.66C45.97 87.56 57.51 87.61 69.05 87.66C73.66 87.66 74.05 88.11 74.12 92.86C74.29 100.6 73.75 108.34 74.44 116.08C74.5223 116.526 74.5024 116.985 74.3817 117.422C74.2611 117.859 74.0429 118.264 73.7436 118.604C73.4442 118.945 73.0715 119.213 72.6535 119.389C72.2354 119.565 71.7829 119.644 71.33 119.62H71C60.87 119.62 62.32 120.62 62.21 111.22V104.28C62.21 100.49 62.05 100.28 58.41 100.28H24.09C19.09 100.28 18.96 100.18 18.96 95.04L19 65.16Z" fill="#FC1C69"/>
<path d="M0.0899991 78.38V41.87C0.0899991 37.87 0.409999 37.54 4.25 37.5C11.34 37.41 11.34 37.41 11.34 44.5V103.33C11.34 107.33 11.51 107.46 15.34 107.47H49C54.26 107.47 54.57 107.82 54.57 113.05C54.57 119.52 54.57 119.51 48.3 119.51H4.85C0.229999 119.51 0.0899991 119.35 0.0899991 114.51C0.0833324 102.49 0.0833324 90.4467 0.0899991 78.38Z" fill="#FDAF4E"/>
</g>
<path d="M118.773 98.2273C115.455 98.2273 112.443 97.6023 109.739 96.3523C107.034 95.0795 104.886 93.25 103.295 90.8636C101.705 88.4545 100.909 85.5455 100.909 82.1364C100.909 79.1364 101.5 76.7045 102.682 74.8409C103.864 72.9545 105.443 71.4773 107.42 70.4091C109.398 69.3409 111.58 68.5455 113.966 68.0227C116.375 67.4773 118.795 67.0455 121.227 66.7273C124.409 66.3182 126.989 66.0114 128.966 65.8068C130.966 65.5795 132.42 65.2045 133.33 64.6818C134.261 64.1591 134.727 63.25 134.727 61.9545V61.6818C134.727 58.3182 133.807 55.7045 131.966 53.8409C130.148 51.9773 127.386 51.0455 123.682 51.0455C119.841 51.0455 116.83 51.8864 114.648 53.5682C112.466 55.25 110.932 57.0455 110.045 58.9545L102.409 56.2273C103.773 53.0455 105.591 50.5682 107.864 48.7955C110.159 47 112.659 45.75 115.364 45.0455C118.091 44.3182 120.773 43.9545 123.409 43.9545C125.091 43.9545 127.023 44.1591 129.205 44.5682C131.409 44.9545 133.534 45.7614 135.58 46.9886C137.648 48.2159 139.364 50.0682 140.727 52.5455C142.091 55.0227 142.773 58.3409 142.773 62.5V97H134.727V89.9091H134.318C133.773 91.0455 132.864 92.2614 131.591 93.5568C130.318 94.8523 128.625 95.9545 126.511 96.8636C124.398 97.7727 121.818 98.2273 118.773 98.2273ZM120 91C123.182 91 125.864 90.375 128.045 89.125C130.25 87.875 131.909 86.2614 133.023 84.2841C134.159 82.3068 134.727 80.2273 134.727 78.0455V70.6818C134.386 71.0909 133.636 71.4659 132.477 71.8068C131.341 72.125 130.023 72.4091 128.523 72.6591C127.045 72.8864 125.602 73.0909 124.193 73.2727C122.807 73.4318 121.682 73.5682 120.818 73.6818C118.727 73.9545 116.773 74.3977 114.955 75.0114C113.159 75.6023 111.705 76.5 110.591 77.7045C109.5 78.8864 108.955 80.5 108.955 82.5455C108.955 85.3409 109.989 87.4545 112.057 88.8864C114.148 90.2955 116.795 91 120 91ZM165.503 65.5V97H157.457V44.6364H165.23V52.8182H165.912C167.139 50.1591 169.003 48.0227 171.503 46.4091C174.003 44.7727 177.23 43.9545 181.185 43.9545C184.73 43.9545 187.832 44.6818 190.491 46.1364C193.151 47.5682 195.219 49.75 196.696 52.6818C198.173 55.5909 198.912 59.2727 198.912 63.7273V97H190.866V64.2727C190.866 60.1591 189.798 56.9545 187.662 54.6591C185.526 52.3409 182.594 51.1818 178.866 51.1818C176.298 51.1818 174.003 51.7386 171.98 52.8523C169.98 53.9659 168.401 55.5909 167.241 57.7273C166.082 59.8636 165.503 62.4545 165.503 65.5ZM262.432 49C261.682 46.7045 260.693 44.6477 259.466 42.8295C258.261 40.9886 256.818 39.4205 255.136 38.125C253.477 36.8295 251.591 35.8409 249.477 35.1591C247.364 34.4773 245.045 34.1364 242.523 34.1364C238.386 34.1364 234.625 35.2045 231.239 37.3409C227.852 39.4773 225.159 42.625 223.159 46.7841C221.159 50.9432 220.159 56.0455 220.159 62.0909C220.159 68.1364 221.17 73.2386 223.193 77.3977C225.216 81.5568 227.955 84.7045 231.409 86.8409C234.864 88.9773 238.75 90.0455 243.068 90.0455C247.068 90.0455 250.591 89.1932 253.636 87.4886C256.705 85.7614 259.091 83.3295 260.795 80.1932C262.523 77.0341 263.386 73.3182 263.386 69.0455L265.977 69.5909H244.977V62.0909H271.568V69.5909C271.568 75.3409 270.341 80.3409 267.886 84.5909C265.455 88.8409 262.091 92.1364 257.795 94.4773C253.523 96.7955 248.614 97.9545 243.068 97.9545C236.886 97.9545 231.455 96.5 226.773 93.5909C222.114 90.6818 218.477 86.5455 215.864 81.1818C213.273 75.8182 211.977 69.4545 211.977 62.0909C211.977 56.5682 212.716 51.6023 214.193 47.1932C215.693 42.7614 217.807 38.9886 220.534 35.875C223.261 32.7614 226.489 30.375 230.216 28.7159C233.943 27.0568 238.045 26.2273 242.523 26.2273C246.205 26.2273 249.636 26.7841 252.818 27.8977C256.023 28.9886 258.875 30.5455 261.375 32.5682C263.898 34.5682 266 36.9659 267.682 39.7614C269.364 42.5341 270.523 45.6136 271.159 49H262.432ZM300.366 98.2273C297.048 98.2273 294.037 97.6023 291.332 96.3523C288.628 95.0795 286.48 93.25 284.889 90.8636C283.298 88.4545 282.503 85.5455 282.503 82.1364C282.503 79.1364 283.094 76.7045 284.276 74.8409C285.457 72.9545 287.037 71.4773 289.014 70.4091C290.991 69.3409 293.173 68.5455 295.56 68.0227C297.969 67.4773 300.389 67.0455 302.821 66.7273C306.003 66.3182 308.582 66.0114 310.56 65.8068C312.56 65.5795 314.014 65.2045 314.923 64.6818C315.855 64.1591 316.321 63.25 316.321 61.9545V61.6818C316.321 58.3182 315.401 55.7045 313.56 53.8409C311.741 51.9773 308.98 51.0455 305.276 51.0455C301.435 51.0455 298.423 51.8864 296.241 53.5682C294.06 55.25 292.526 57.0455 291.639 58.9545L284.003 56.2273C285.366 53.0455 287.185 50.5682 289.457 48.7955C291.753 47 294.253 45.75 296.957 45.0455C299.685 44.3182 302.366 43.9545 305.003 43.9545C306.685 43.9545 308.616 44.1591 310.798 44.5682C313.003 44.9545 315.128 45.7614 317.173 46.9886C319.241 48.2159 320.957 50.0682 322.321 52.5455C323.685 55.0227 324.366 58.3409 324.366 62.5V97H316.321V89.9091H315.912C315.366 91.0455 314.457 92.2614 313.185 93.5568C311.912 94.8523 310.219 95.9545 308.105 96.8636C305.991 97.7727 303.412 98.2273 300.366 98.2273ZM301.594 91C304.776 91 307.457 90.375 309.639 89.125C311.844 87.875 313.503 86.2614 314.616 84.2841C315.753 82.3068 316.321 80.2273 316.321 78.0455V70.6818C315.98 71.0909 315.23 71.4659 314.071 71.8068C312.935 72.125 311.616 72.4091 310.116 72.6591C308.639 72.8864 307.196 73.0909 305.787 73.2727C304.401 73.4318 303.276 73.5682 302.412 73.6818C300.321 73.9545 298.366 74.3977 296.548 75.0114C294.753 75.6023 293.298 76.5 292.185 77.7045C291.094 78.8864 290.548 80.5 290.548 82.5455C290.548 85.3409 291.582 87.4545 293.651 88.8864C295.741 90.2955 298.389 91 301.594 91ZM360.188 117.727C356.301 117.727 352.96 117.227 350.165 116.227C347.369 115.25 345.04 113.955 343.176 112.341C341.335 110.75 339.869 109.045 338.778 107.227L345.188 102.727C345.915 103.682 346.835 104.773 347.949 106C349.063 107.25 350.585 108.33 352.517 109.239C354.472 110.17 357.028 110.636 360.188 110.636C364.415 110.636 367.903 109.614 370.653 107.568C373.403 105.523 374.778 102.318 374.778 97.9545V87.3182H374.097C373.506 88.2727 372.665 89.4545 371.574 90.8636C370.506 92.25 368.96 93.4886 366.938 94.5795C364.938 95.6477 362.233 96.1818 358.824 96.1818C354.597 96.1818 350.801 95.1818 347.438 93.1818C344.097 91.1818 341.449 88.2727 339.494 84.4545C337.563 80.6364 336.597 76 336.597 70.5455C336.597 65.1818 337.54 60.5114 339.426 56.5341C341.313 52.5341 343.938 49.4432 347.301 47.2614C350.665 45.0568 354.551 43.9545 358.96 43.9545C362.369 43.9545 365.074 44.5227 367.074 45.6591C369.097 46.7727 370.642 48.0455 371.71 49.4773C372.801 50.8864 373.642 52.0455 374.233 52.9545H375.051V44.6364H382.824V98.5C382.824 103 381.801 106.659 379.756 109.477C377.733 112.318 375.006 114.398 371.574 115.716C368.165 117.057 364.369 117.727 360.188 117.727ZM359.915 88.9545C363.142 88.9545 365.869 88.2159 368.097 86.7386C370.324 85.2614 372.017 83.1364 373.176 80.3636C374.335 77.5909 374.915 74.2727 374.915 70.4091C374.915 66.6364 374.347 63.3068 373.21 60.4205C372.074 57.5341 370.392 55.2727 368.165 53.6364C365.938 52 363.188 51.1818 359.915 51.1818C356.506 51.1818 353.665 52.0455 351.392 53.7727C349.142 55.5 347.449 57.8182 346.312 60.7273C345.199 63.6364 344.642 66.8636 344.642 70.4091C344.642 74.0455 345.21 77.2614 346.347 80.0568C347.506 82.8295 349.21 85.0114 351.46 86.6023C353.733 88.1705 356.551 88.9545 359.915 88.9545ZM419.506 98.0909C414.46 98.0909 410.108 96.9773 406.449 94.75C402.812 92.5 400.006 89.3636 398.028 85.3409C396.074 81.2955 395.097 76.5909 395.097 71.2273C395.097 65.8636 396.074 61.1364 398.028 57.0455C400.006 52.9318 402.756 49.7273 406.278 47.4318C409.824 45.1136 413.96 43.9545 418.688 43.9545C421.415 43.9545 424.108 44.4091 426.767 45.3182C429.426 46.2273 431.847 47.7045 434.028 49.75C436.21 51.7727 437.949 54.4545 439.244 57.7955C440.54 61.1364 441.188 65.25 441.188 70.1364V73.5455H400.824V66.5909H433.006C433.006 63.6364 432.415 61 431.233 58.6818C430.074 56.3636 428.415 54.5341 426.256 53.1932C424.119 51.8523 421.597 51.1818 418.688 51.1818C415.483 51.1818 412.71 51.9773 410.369 53.5682C408.051 55.1364 406.267 57.1818 405.017 59.7045C403.767 62.2273 403.142 64.9318 403.142 67.8182V72.4545C403.142 76.4091 403.824 79.7614 405.188 82.5114C406.574 85.2386 408.494 87.3182 410.949 88.75C413.403 90.1591 416.256 90.8636 419.506 90.8636C421.619 90.8636 423.528 90.5682 425.233 89.9773C426.96 89.3636 428.449 88.4545 429.699 87.25C430.949 86.0227 431.915 84.5 432.597 82.6818L440.369 84.8636C439.551 87.5 438.176 89.8182 436.244 91.8182C434.313 93.7955 431.926 95.3409 429.085 96.4545C426.244 97.5455 423.051 98.0909 419.506 98.0909Z" fill="black"/>
<defs>
<clipPath id="clip0_4_52">
<rect width="93.25" height="119.69" fill="white"/>
</clipPath>
</defs>
</svg>
