<svg xmlns="http://www.w3.org/2000/svg" viewBox="0 0 93.25 119.69"><title>&#x8D44;&#x6E90; 86</title><path d="M49.25 34.37v30.47c0 3.65.28 3.92 3.92 3.92h36.08c3.75 0 4 .63 4 4.45-.14 12.57-.29 25.14 0 37.7.17 8.69.08 9-8.36 8.7-2.93-.11-3.65-1.65-3.64-4.26V86.69c0-6.88.52-6.32-6.25-6.33H41.58c-3.73 0-4.1-.63-3.87-4.51s.2-8 .2-12.06v-48c0-4.06-.16-4.22-4.2-4.22-10 0-19.91-.08-29.87 0C1 11.68 0 10.73 0 7.83.17-.85-.72 0 7.63 0h37.56c3.68 0 4 .38 4.05 4.18q.03 15.1.01 30.19z" fill="#a82ab2"/><path d="M19 65.16v-29c0-5.36 0-5.35-5.4-5.36H3.25C1 30.87 0 29.83 0 27.55c.09-10.89-1.11-9.26 8.76-9.36 5.72-.06 11.44 0 17.16 0 4.27 0 4.9.63 4.91 5.12v46.18c0 4.82.11 9.66 0 14.48-.08 2.75.9 3.72 3.6 3.69 11.54-.1 23.08-.05 34.62 0 4.61 0 5 .45 5.07 5.2.17 7.74-.37 15.48.32 23.22a3 3 0 0 1-3.11 3.54H71c-10.13 0-8.68 1-8.79-8.4v-6.94c0-3.79-.16-4-3.8-4H24.09c-5 0-5.13-.1-5.13-5.24z" fill="#fc1c69"/><path d="M.09 78.38V41.87c0-4 .32-4.33 4.16-4.37 7.09-.09 7.09-.09 7.09 7v58.83c0 4 .17 4.13 4 4.14H49c5.26 0 5.57.35 5.57 5.58 0 6.47 0 6.46-6.27 6.46H4.85c-4.62 0-4.76-.16-4.76-5q-.01-18.03 0-36.13z" fill="#fdaf4e"/></svg>